<?xml version="1.0" encoding="UTF-8"?>
<svg id="Layer_2" data-name="Layer 2" xmlns="http://www.w3.org/2000/svg" viewBox="0 0 145.43 185.6">
  <defs>
    <style>
      .cls-1 {
        fill: #fff;
      }
    </style>
  </defs>
  <g id="Layer_1-2" data-name="Layer 1">
    <g>
      <path class="cls-1" d="M11.26,165.7v6.76c-4.54,0-6.98,1.65-6.98,4.66v8.03H0v-19.15h4.28v4.77c1.5-3.16,3.94-5.07,6.98-5.07"/>
      <path class="cls-1" d="M33.31,177.19h-16.11c.79,2.07,3,3.38,6.04,3.38,2.25,0,4.24-.64,5.11-1.46h4.73c-1.43,3.87-5.25,6.5-9.95,6.5-5.93,0-10.36-4.32-10.36-10.02s4.43-10.02,10.32-10.02,10.33,4.28,10.33,10.14c0,.49-.04,1.05-.11,1.5M17.24,173.92h11.79c-.75-2.06-3.08-3.34-5.93-3.34s-5.07,1.31-5.86,3.34"/>
      <path class="cls-1" d="M35.5,175.58c0-5.71,4.43-10.02,10.32-10.02,5.18,0,9.27,3.38,10.1,8.15h-4.65c-.86-1.61-2.97-2.67-5.45-2.67-3.38,0-5.89,1.95-5.89,4.54s2.52,4.54,5.89,4.54c2.48,0,4.58-1.05,5.45-2.67h4.65c-.83,4.77-4.92,8.15-10.1,8.15-5.89,0-10.32-4.32-10.32-10.02"/>
      <path class="cls-1" d="M78.46,177.19h-16.11c.79,2.07,3,3.38,6.04,3.38,2.25,0,4.24-.64,5.11-1.46h4.73c-1.43,3.87-5.25,6.5-9.95,6.5-5.93,0-10.36-4.32-10.36-10.02s4.43-10.02,10.32-10.02,10.33,4.28,10.33,10.14c0,.49-.04,1.05-.11,1.5M62.39,173.92h11.79c-.75-2.06-3.08-3.34-5.93-3.34s-5.07,1.31-5.86,3.34"/>
      <path class="cls-1" d="M80.46,160.45c0-1.69,1.5-3,3.45-3s3.49,1.31,3.49,3-1.5,3.04-3.49,3.04-3.45-1.31-3.45-3.04M81.77,166h4.28v19.15h-4.28v-19.15Z"/>
      <path class="cls-1" d="M96.98,171.37v6.49c0,1.28.79,1.88,2.44,1.88h2.74v5.41h-3.23c-4.13,0-6.27-1.99-6.27-5.97v-7.81h-3.72v-5.37h3.72v-4.43l4.32-1.2v5.63h5.56v5.37h-5.56Z"/>
      <path class="cls-1" d="M124.66,166v19.15h-4.28v-3.83c-1.43,2.63-3.87,4.28-6.98,4.28-5.26,0-9.24-4.32-9.24-10.02s3.98-10.02,9.24-10.02c3.11,0,5.55,1.65,6.98,4.28v-3.83h4.28ZM120.38,175.58c0-2.59-2.52-4.54-5.89-4.54s-5.86,1.95-5.86,4.54,2.48,4.54,5.86,4.54,5.89-1.95,5.89-4.54"/>
      <path class="cls-1" d="M127.86,178.69h4.2c0,1.2,1.95,2.1,4.66,2.1s4.51-.68,4.51-1.61c0-1.02-2.29-1.39-5.71-1.8-3.87-.45-7.36-2.06-7.36-5.74,0-3.98,3.9-6.08,8.45-6.08,4.88,0,8.52,2.93,8.52,6.65h-4.24c0-1.05-1.88-1.84-4.32-1.84s-4.17.6-4.17,1.46,2.1,1.39,5.67,1.8c3.64.41,7.36,1.84,7.36,5.63,0,4.09-3.94,6.34-8.79,6.34-5.1,0-8.78-3.08-8.78-6.91"/>
      <path class="cls-1" d="M6.98,68.86h56.34c3.46,0,6.26-2.8,6.26-6.26V6.26c0-3.46-2.8-6.26-6.26-6.26H6.98C3.52,0,.72,2.8.72,6.26v56.34c0,3.46,2.8,6.26,6.26,6.26M6.98,143.99h56.34c3.46,0,6.26-2.8,6.26-6.26v-56.34c0-3.46-2.8-6.26-6.26-6.26H6.98c-3.46,0-6.26,2.8-6.26,6.26v56.34c0,3.46,2.8,6.26,6.26,6.26M82.31.11c53.7,1.53,62.4,22.26,62.4,34.32s-8.7,32.81-62.4,34.32c-3.53.1-6.46-2.74-6.46-6.27V6.38c0-3.53,2.94-6.37,6.46-6.27M144.59,81.59c-1.53,53.7-22.26,62.4-34.32,62.4s-32.81-8.7-34.32-62.4c-.1-3.53,2.74-6.46,6.27-6.46h56.1c3.53,0,6.37,2.94,6.27,6.46"/>
    </g>
  </g>
</svg>